<svg width="349" height="326" viewBox="0 0 349 326" fill="none" xmlns="http://www.w3.org/2000/svg">
<path d="M20.352 275.563C16.736 275.563 13.856 276.699 11.712 278.971C9.568 281.211 8.496 284.267 8.496 288.139C8.496 291.979 9.6 295.035 11.808 297.307C14.016 299.579 16.864 300.715 20.352 300.715C23.264 300.715 26.112 299.835 28.896 298.075L30.912 303.019C27.68 305.099 23.952 306.139 19.728 306.139C14.256 306.139 9.872 304.523 6.576 301.291C3.28 298.027 1.632 293.643 1.632 288.139C1.632 282.603 3.248 278.219 6.48 274.987C9.712 271.755 14.128 270.139 19.728 270.139C23.952 270.139 27.68 271.179 30.912 273.259L28.896 278.203C26.112 276.443 23.264 275.563 20.352 275.563ZM46.6733 280.219C50.4813 280.219 53.2173 280.971 54.8813 282.475C56.5453 283.947 57.3773 286.347 57.3773 289.675V298.939C57.3773 301.211 57.6173 303.451 58.0973 305.659H52.1933C52.0013 304.603 51.8573 303.371 51.7613 301.963H51.6653C50.7693 303.275 49.5533 304.299 48.0173 305.035C46.5133 305.771 44.8653 306.139 43.0733 306.139C40.7373 306.139 38.8653 305.499 37.4573 304.219C36.0813 302.907 35.3933 301.099 35.3933 298.795C35.3933 296.011 36.5613 293.787 38.8973 292.123C41.2653 290.427 44.6573 289.579 49.0733 289.579H51.1373V289.435C51.1373 287.739 50.8013 286.555 50.1293 285.883C49.4573 285.211 48.2573 284.875 46.5293 284.875C43.3933 284.875 40.4333 285.595 37.6493 287.035L36.7373 282.379C39.7773 280.939 43.0893 280.219 46.6733 280.219ZM41.2493 298.315C41.2493 299.339 41.5533 300.139 42.1613 300.715C42.7693 301.291 43.6013 301.579 44.6573 301.579C46.4813 301.579 48.0173 300.987 49.2653 299.803C50.5133 298.619 51.1373 297.131 51.1373 295.339V293.707H49.0733C46.5453 293.707 44.6093 294.139 43.2653 295.003C41.9213 295.835 41.2493 296.939 41.2493 298.315ZM64.2495 280.699H70.2015L70.2975 285.499H70.3935C73.2415 281.979 77.0655 280.219 81.8655 280.219V285.307C78.3135 285.307 75.5455 286.171 73.5615 287.899C71.6095 289.595 70.6335 291.883 70.6335 294.763V305.659H64.2495V280.699ZM91.1689 291.163H102.881C102.849 289.083 102.321 287.499 101.297 286.411C100.305 285.291 98.8969 284.731 97.0729 284.731C95.3129 284.731 93.9049 285.291 92.8489 286.411C91.8249 287.531 91.2649 289.115 91.1689 291.163ZM91.1689 295.435C91.3289 297.323 92.0489 298.827 93.3289 299.947C94.6409 301.035 96.2889 301.579 98.2729 301.579C100.641 301.579 102.993 300.987 105.329 299.803L106.769 304.219C103.889 305.499 100.849 306.139 97.6489 306.139C93.8729 306.139 90.8009 304.971 88.4329 302.635C86.0969 300.299 84.9289 297.147 84.9289 293.179C84.9289 289.147 86.0169 285.979 88.1929 283.675C90.3689 281.371 93.3129 280.219 97.0249 280.219C100.737 280.219 103.617 281.323 105.665 283.531C107.745 285.739 108.785 288.907 108.785 293.035C108.785 293.835 108.737 294.635 108.641 295.435H91.1689ZM119.013 291.163H130.725C130.693 289.083 130.165 287.499 129.141 286.411C128.149 285.291 126.741 284.731 124.917 284.731C123.157 284.731 121.749 285.291 120.693 286.411C119.669 287.531 119.109 289.115 119.013 291.163ZM119.013 295.435C119.173 297.323 119.893 298.827 121.173 299.947C122.485 301.035 124.133 301.579 126.117 301.579C128.485 301.579 130.837 300.987 133.173 299.803L134.613 304.219C131.733 305.499 128.693 306.139 125.493 306.139C121.717 306.139 118.645 304.971 116.277 302.635C113.941 300.299 112.773 297.147 112.773 293.179C112.773 289.147 113.861 285.979 116.037 283.675C118.213 281.371 121.157 280.219 124.869 280.219C128.581 280.219 131.461 281.323 133.509 283.531C135.589 285.739 136.629 288.907 136.629 293.035C136.629 293.835 136.581 294.635 136.485 295.435H119.013ZM141.828 280.699H147.78L147.876 285.499H147.972C150.82 281.979 154.644 280.219 159.444 280.219V285.307C155.892 285.307 153.124 286.171 151.14 287.899C149.188 289.595 148.212 291.883 148.212 294.763V305.659H141.828V280.699ZM165.605 270.859C168.933 270.379 172.453 270.139 176.165 270.139C180.965 270.139 184.565 271.099 186.965 273.019C189.365 274.907 190.565 277.659 190.565 281.275C190.565 285.275 189.397 288.299 187.061 290.347C184.757 292.395 181.333 293.419 176.789 293.419C174.933 293.419 173.413 293.355 172.229 293.227V305.659H165.605V270.859ZM172.229 288.043C173.445 288.235 174.757 288.331 176.165 288.331C178.757 288.331 180.725 287.771 182.069 286.651C183.445 285.499 184.133 283.867 184.133 281.755C184.133 277.499 181.477 275.371 176.165 275.371C174.725 275.371 173.413 275.467 172.229 275.659V288.043ZM204.408 280.219C208.216 280.219 210.952 280.971 212.616 282.475C214.28 283.947 215.112 286.347 215.112 289.675V298.939C215.112 301.211 215.352 303.451 215.832 305.659H209.928C209.736 304.603 209.592 303.371 209.496 301.963H209.4C208.504 303.275 207.288 304.299 205.752 305.035C204.248 305.771 202.6 306.139 200.808 306.139C198.472 306.139 196.6 305.499 195.192 304.219C193.816 302.907 193.128 301.099 193.128 298.795C193.128 296.011 194.296 293.787 196.632 292.123C199 290.427 202.392 289.579 206.808 289.579H208.872V289.435C208.872 287.739 208.536 286.555 207.864 285.883C207.192 285.211 205.992 284.875 204.264 284.875C201.128 284.875 198.168 285.595 195.384 287.035L194.472 282.379C197.512 280.939 200.824 280.219 204.408 280.219ZM198.984 298.315C198.984 299.339 199.288 300.139 199.896 300.715C200.504 301.291 201.336 301.579 202.392 301.579C204.216 301.579 205.752 300.987 207 299.803C208.248 298.619 208.872 297.131 208.872 295.339V293.707H206.808C204.28 293.707 202.344 294.139 201 295.003C199.656 295.835 198.984 296.939 198.984 298.315ZM230.899 281.659H239.491V286.315H230.899V296.539C230.899 298.427 231.139 299.707 231.619 300.379C232.099 301.019 232.963 301.339 234.211 301.339C235.747 301.339 237.187 301.067 238.531 300.523L239.347 305.179C237.363 305.819 235.219 306.139 232.915 306.139C229.971 306.139 227.827 305.483 226.483 304.171C225.171 302.859 224.515 300.683 224.515 297.643V286.315H219.331V281.659H224.515V272.539H230.899V281.659ZM246.365 269.659H252.605V283.915H252.701C254.781 281.451 257.341 280.219 260.381 280.219C263.261 280.219 265.373 281.115 266.717 282.907C268.093 284.667 268.781 287.563 268.781 291.595V305.659H262.637V292.219C262.637 289.467 262.317 287.611 261.677 286.651C261.037 285.659 259.885 285.163 258.221 285.163C256.717 285.163 255.405 285.915 254.285 287.419C253.165 288.891 252.605 290.539 252.605 292.363V305.659H246.365V269.659Z" fill="#007BFF"/>
<rect x="33.2861" y="22.696" width="254.185" height="221.202" fill="#000080"/>
<rect x="45.3902" y="36.2785" width="228.968" height="192.096" fill="white"/>
<path d="M124.066 80.907H139.197V243.898H124.066V80.907Z" fill="#000080"/>
<path d="M179.039 91.5791H194.169V243.898H179.039V91.5791Z" fill="#000080"/>
<rect x="139.197" y="88.6685" width="40.3468" height="155.229" fill="white"/>
<rect width="26.9685" height="120.612" transform="matrix(0.819405 -0.573215 0.603136 0.797639 139.197 41.0652)" fill="#000080"/>
<rect width="27.735" height="114.968" transform="matrix(0.835213 0.549927 -0.579843 0.814728 149.374 25.6065)" fill="#000080"/>
<rect width="15.92" height="94.893" transform="matrix(0.811196 -0.584774 0.614642 0.788806 151.301 14.1356)" fill="white"/>
<rect width="17.9117" height="128.918" transform="matrix(0.812687 0.582701 -0.612581 0.790408 151.231 0)" fill="white"/>
<rect x="197.699" y="122.625" width="36.3121" height="29.1055" fill="white"/>
<rect x="82.711" y="121.655" width="34.2948" height="30.0757" fill="white"/>
<rect x="194.673" y="125.535" width="21.1821" height="118.362" fill="white"/>
<rect x="104.902" y="125.535" width="19.1647" height="118.362" fill="white"/>
<rect x="215.855" y="188.597" width="11.0954" height="39.7776" fill="#5EE6EB"/>
<rect x="249.142" y="188.597" width="11.0954" height="39.7776" fill="#0E46A3"/>
<rect x="60.5202" y="188.597" width="11.0954" height="39.7776" fill="#4D77FF"/>
<ellipse cx="220.899" cy="169.679" rx="13.1127" ry="13.0975" fill="#5EE6EB"/>
<ellipse cx="254.185" cy="169.679" rx="13.1127" ry="13.0975" fill="#0E46A3"/>
<ellipse cx="99.8584" cy="169.679" rx="13.1127" ry="13.0975" fill="#56BBF1"/>
<ellipse cx="66.5723" cy="169.679" rx="13.1127" ry="13.0975" fill="#4D77FF"/>
<path d="M293.327 307.773V296.054H281.546V289.085H293.327V277.304H300.265V289.085H311.983V296.054H300.265V307.773H293.327Z" fill="#007BFF"/>
<rect x="92.7977" y="188.597" width="11.0954" height="39.7776" fill="#56BBF1"/>
</svg>
